<svg width="80" height="80" viewBox="0 0 80 80" fill="none" xmlns="http://www.w3.org/2000/svg">
<rect x="0.5" y="0.5" width="79" height="79" rx="39.5" fill="#FDF8B3"/>
<path d="M14.916 27.4434H23.3098V50.8184H32.8723V26.859C35.6879 27.1777 38.5035 27.4434 41.266 27.4434V18.9434H14.916V27.4434Z" fill="#E3565B"/>
<path d="M55.361 32.6324L53.8204 42.0887C53.4485 44.2137 53.1297 46.3918 52.8641 48.6762H50.8454C50.5266 46.6043 50.2079 44.5325 49.836 42.4606L48.136 32.6324H38.3079L44.1516 54.9981H51.4829C51.111 56.22 50.6329 57.5481 49.9423 58.9293C48.5079 59.3012 47.1266 59.4605 45.7454 59.4605C43.9391 59.4605 41.4954 59.195 39.8485 58.7168V66.8448C41.8141 67.3229 44.2048 67.4292 45.6923 67.4292C53.9266 67.4292 56.7422 64.3481 58.8672 56.2731L65.0829 32.6324H55.361Z" fill="#E3565B"/>
<rect x="0.5" y="0.5" width="79" height="79" rx="39.5" stroke="#E3DD8A"/>
</svg>
